<mxfile host="app.diagrams.net" modified="2023-10-17T18:32:56.031Z" agent="Mozilla/5.0 (Macintosh; Intel Mac OS X 10_15_7) AppleWebKit/537.36 (KHTML, like Gecko) Chrome/117.0.0.0 Safari/537.36" etag="S_onBOOmusoYusKZcZf9" version="22.0.4" type="device">
  <diagram name="Page-1" id="q0aN9C3ZCvXhXREPQR7S">
    <mxGraphModel dx="2726" dy="2543" grid="1" gridSize="10" guides="1" tooltips="1" connect="1" arrows="1" fold="1" page="0" pageScale="1" pageWidth="827" pageHeight="1169" math="0" shadow="0">
      <root>
        <mxCell id="0" />
        <mxCell id="1" parent="0" />
        <mxCell id="X623mI5D7pwIxlIXd98o-2" value="CUSTOMER" style="shape=umlActor;verticalLabelPosition=bottom;verticalAlign=top;html=1;outlineConnect=0;" parent="1" vertex="1">
          <mxGeometry x="40" y="360" width="30" height="60" as="geometry" />
        </mxCell>
        <mxCell id="X623mI5D7pwIxlIXd98o-8" value="NEW USER REGISTRATION" style="ellipse;whiteSpace=wrap;html=1;" parent="1" vertex="1">
          <mxGeometry x="160" y="450" width="130" height="60" as="geometry" />
        </mxCell>
        <mxCell id="X623mI5D7pwIxlIXd98o-9" value="EXISTING USER SIGN-IN" style="ellipse;whiteSpace=wrap;html=1;" parent="1" vertex="1">
          <mxGeometry x="160" y="260" width="130" height="60" as="geometry" />
        </mxCell>
        <mxCell id="X623mI5D7pwIxlIXd98o-13" value="" style="endArrow=classic;html=1;rounded=0;entryX=-0.026;entryY=0.354;entryDx=0;entryDy=0;entryPerimeter=0;" parent="1" target="X623mI5D7pwIxlIXd98o-8" edge="1">
          <mxGeometry width="50" height="50" relative="1" as="geometry">
            <mxPoint x="90" y="390" as="sourcePoint" />
            <mxPoint x="510" y="340" as="targetPoint" />
          </mxGeometry>
        </mxCell>
        <mxCell id="X623mI5D7pwIxlIXd98o-26" value="" style="endArrow=classic;html=1;rounded=0;entryX=0.022;entryY=0.682;entryDx=0;entryDy=0;entryPerimeter=0;" parent="1" target="X623mI5D7pwIxlIXd98o-9" edge="1">
          <mxGeometry width="50" height="50" relative="1" as="geometry">
            <mxPoint x="90" y="390" as="sourcePoint" />
            <mxPoint x="610" y="320" as="targetPoint" />
          </mxGeometry>
        </mxCell>
        <mxCell id="X623mI5D7pwIxlIXd98o-43" value="" style="endArrow=classic;html=1;rounded=0;exitX=0.489;exitY=-0.01;exitDx=0;exitDy=0;entryX=0.5;entryY=1;entryDx=0;entryDy=0;exitPerimeter=0;" parent="1" source="X623mI5D7pwIxlIXd98o-8" target="X623mI5D7pwIxlIXd98o-9" edge="1">
          <mxGeometry width="50" height="50" relative="1" as="geometry">
            <mxPoint x="277.1400000000001" y="438.8000000000001" as="sourcePoint" />
            <mxPoint x="272.85" y="350.00000000000006" as="targetPoint" />
          </mxGeometry>
        </mxCell>
        <mxCell id="X623mI5D7pwIxlIXd98o-45" value="" style="endArrow=classic;html=1;rounded=0;exitX=1;exitY=0.5;exitDx=0;exitDy=0;entryX=0;entryY=0.5;entryDx=0;entryDy=0;" parent="1" source="X623mI5D7pwIxlIXd98o-9" target="X623mI5D7pwIxlIXd98o-46" edge="1">
          <mxGeometry width="50" height="50" relative="1" as="geometry">
            <mxPoint x="410" y="340" as="sourcePoint" />
            <mxPoint x="410" y="320" as="targetPoint" />
          </mxGeometry>
        </mxCell>
        <mxCell id="X623mI5D7pwIxlIXd98o-46" value="HOMEPAGE" style="ellipse;whiteSpace=wrap;html=1;" parent="1" vertex="1">
          <mxGeometry x="350" y="250" width="120" height="80" as="geometry" />
        </mxCell>
        <mxCell id="X623mI5D7pwIxlIXd98o-48" value="" style="endArrow=classic;html=1;rounded=0;entryX=0;entryY=0.5;entryDx=0;entryDy=0;exitX=1;exitY=1;exitDx=0;exitDy=0;" parent="1" source="X623mI5D7pwIxlIXd98o-46" target="X623mI5D7pwIxlIXd98o-53" edge="1">
          <mxGeometry width="50" height="50" relative="1" as="geometry">
            <mxPoint x="530" y="320" as="sourcePoint" />
            <mxPoint x="660" y="380" as="targetPoint" />
          </mxGeometry>
        </mxCell>
        <mxCell id="X623mI5D7pwIxlIXd98o-49" value="" style="endArrow=classic;html=1;rounded=0;exitX=0.996;exitY=0.502;exitDx=0;exitDy=0;exitPerimeter=0;entryX=0;entryY=0.5;entryDx=0;entryDy=0;" parent="1" source="X623mI5D7pwIxlIXd98o-46" target="X623mI5D7pwIxlIXd98o-54" edge="1">
          <mxGeometry width="50" height="50" relative="1" as="geometry">
            <mxPoint x="530" y="310" as="sourcePoint" />
            <mxPoint x="510" y="250" as="targetPoint" />
          </mxGeometry>
        </mxCell>
        <mxCell id="X623mI5D7pwIxlIXd98o-50" value="" style="endArrow=classic;html=1;rounded=0;entryX=0.024;entryY=0.683;entryDx=0;entryDy=0;entryPerimeter=0;exitX=1;exitY=0;exitDx=0;exitDy=0;" parent="1" source="X623mI5D7pwIxlIXd98o-46" target="X623mI5D7pwIxlIXd98o-51" edge="1">
          <mxGeometry width="50" height="50" relative="1" as="geometry">
            <mxPoint x="530" y="320" as="sourcePoint" />
            <mxPoint x="650" y="230" as="targetPoint" />
          </mxGeometry>
        </mxCell>
        <mxCell id="X623mI5D7pwIxlIXd98o-51" value="ACCOUNTS&amp;nbsp;" style="ellipse;whiteSpace=wrap;html=1;" parent="1" vertex="1">
          <mxGeometry x="550" y="-150" width="120" height="60" as="geometry" />
        </mxCell>
        <mxCell id="X623mI5D7pwIxlIXd98o-53" value="ESSENTIAL SERVICES" style="ellipse;whiteSpace=wrap;html=1;" parent="1" vertex="1">
          <mxGeometry x="550" y="630" width="120" height="60" as="geometry" />
        </mxCell>
        <mxCell id="X623mI5D7pwIxlIXd98o-54" value="FUND TRANSFER" style="ellipse;whiteSpace=wrap;html=1;" parent="1" vertex="1">
          <mxGeometry x="550" y="260" width="120" height="60" as="geometry" />
        </mxCell>
        <mxCell id="huo22DJVQxyHxbWJbVEM-2" value="VIEW ACCOUNT BALANCE" style="ellipse;whiteSpace=wrap;html=1;" parent="1" vertex="1">
          <mxGeometry x="930" y="-650" width="140" height="60" as="geometry" />
        </mxCell>
        <mxCell id="huo22DJVQxyHxbWJbVEM-3" value="CONFIRM KYC DETAILS" style="ellipse;whiteSpace=wrap;html=1;" parent="1" vertex="1">
          <mxGeometry x="930" y="-440" width="140" height="60" as="geometry" />
        </mxCell>
        <mxCell id="huo22DJVQxyHxbWJbVEM-4" value="FD SUMMARY" style="ellipse;whiteSpace=wrap;html=1;" parent="1" vertex="1">
          <mxGeometry x="935" y="-510" width="130" height="60" as="geometry" />
        </mxCell>
        <mxCell id="huo22DJVQxyHxbWJbVEM-5" value="ACCOUNT STATEMENT" style="ellipse;whiteSpace=wrap;html=1;" parent="1" vertex="1">
          <mxGeometry x="935" y="-580" width="130" height="60" as="geometry" />
        </mxCell>
        <mxCell id="huo22DJVQxyHxbWJbVEM-6" value="" style="endArrow=classic;html=1;rounded=0;entryX=0.028;entryY=0.751;entryDx=0;entryDy=0;entryPerimeter=0;exitX=1;exitY=0;exitDx=0;exitDy=0;" parent="1" source="X623mI5D7pwIxlIXd98o-51" target="huo22DJVQxyHxbWJbVEM-11" edge="1">
          <mxGeometry width="50" height="50" relative="1" as="geometry">
            <mxPoint x="930" y="-90" as="sourcePoint" />
            <mxPoint x="1290" y="-50" as="targetPoint" />
          </mxGeometry>
        </mxCell>
        <mxCell id="huo22DJVQxyHxbWJbVEM-7" value="" style="endArrow=classic;html=1;rounded=0;entryX=0.022;entryY=0.668;entryDx=0;entryDy=0;entryPerimeter=0;exitX=0.896;exitY=0.193;exitDx=0;exitDy=0;exitPerimeter=0;" parent="1" source="X623mI5D7pwIxlIXd98o-51" target="huo22DJVQxyHxbWJbVEM-12" edge="1">
          <mxGeometry width="50" height="50" relative="1" as="geometry">
            <mxPoint x="770" y="50" as="sourcePoint" />
            <mxPoint x="1070" y="-110" as="targetPoint" />
          </mxGeometry>
        </mxCell>
        <mxCell id="huo22DJVQxyHxbWJbVEM-8" value="" style="endArrow=classic;html=1;rounded=0;entryX=0;entryY=0.5;entryDx=0;entryDy=0;exitX=1;exitY=0.5;exitDx=0;exitDy=0;" parent="1" target="huo22DJVQxyHxbWJbVEM-4" edge="1" source="X623mI5D7pwIxlIXd98o-51">
          <mxGeometry width="50" height="50" relative="1" as="geometry">
            <mxPoint x="760" y="70" as="sourcePoint" />
            <mxPoint x="1280" y="-150" as="targetPoint" />
          </mxGeometry>
        </mxCell>
        <mxCell id="huo22DJVQxyHxbWJbVEM-9" value="" style="endArrow=classic;html=1;rounded=0;entryX=-0.006;entryY=0.404;entryDx=0;entryDy=0;entryPerimeter=0;exitX=0.995;exitY=0.585;exitDx=0;exitDy=0;exitPerimeter=0;" parent="1" source="X623mI5D7pwIxlIXd98o-51" target="huo22DJVQxyHxbWJbVEM-3" edge="1">
          <mxGeometry width="50" height="50" relative="1" as="geometry">
            <mxPoint x="930" y="-90" as="sourcePoint" />
            <mxPoint x="1280" y="-150" as="targetPoint" />
          </mxGeometry>
        </mxCell>
        <mxCell id="huo22DJVQxyHxbWJbVEM-10" value="VIEW / UPDATE NOMINATION DETAILS" style="ellipse;whiteSpace=wrap;html=1;" parent="1" vertex="1">
          <mxGeometry x="930" y="-230" width="140" height="60" as="geometry" />
        </mxCell>
        <mxCell id="huo22DJVQxyHxbWJbVEM-11" value="OPEN FIX DEPOSIT" style="ellipse;whiteSpace=wrap;html=1;" parent="1" vertex="1">
          <mxGeometry x="920" y="-790" width="160" height="60" as="geometry" />
        </mxCell>
        <mxCell id="huo22DJVQxyHxbWJbVEM-12" value="LIQUIDATE FIX DEPOSIT" style="ellipse;whiteSpace=wrap;html=1;" parent="1" vertex="1">
          <mxGeometry x="925" y="-720" width="150" height="60" as="geometry" />
        </mxCell>
        <mxCell id="huo22DJVQxyHxbWJbVEM-13" value="MODIFY SECURE ACCESS PROFILE" style="ellipse;whiteSpace=wrap;html=1;" parent="1" vertex="1">
          <mxGeometry x="920" y="-300" width="160" height="60" as="geometry" />
        </mxCell>
        <mxCell id="huo22DJVQxyHxbWJbVEM-14" value="ADD / UPDATE ID" style="ellipse;whiteSpace=wrap;html=1;" parent="1" vertex="1">
          <mxGeometry x="925" y="-370" width="150" height="60" as="geometry" />
        </mxCell>
        <mxCell id="huo22DJVQxyHxbWJbVEM-15" value="CHANGE FD INSTRUCTIONS" style="ellipse;whiteSpace=wrap;html=1;" parent="1" vertex="1">
          <mxGeometry x="925" y="-160" width="150" height="60" as="geometry" />
        </mxCell>
        <mxCell id="huo22DJVQxyHxbWJbVEM-16" value="" style="endArrow=classic;html=1;rounded=0;entryX=0.008;entryY=0.64;entryDx=0;entryDy=0;entryPerimeter=0;exitX=0.945;exitY=0.232;exitDx=0;exitDy=0;exitPerimeter=0;" parent="1" source="X623mI5D7pwIxlIXd98o-51" target="huo22DJVQxyHxbWJbVEM-2" edge="1">
          <mxGeometry width="50" height="50" relative="1" as="geometry">
            <mxPoint x="760" y="60" as="sourcePoint" />
            <mxPoint x="1370" y="-180" as="targetPoint" />
          </mxGeometry>
        </mxCell>
        <mxCell id="huo22DJVQxyHxbWJbVEM-17" value="" style="endArrow=classic;html=1;rounded=0;entryX=0.022;entryY=0.682;entryDx=0;entryDy=0;entryPerimeter=0;exitX=0.965;exitY=0.33;exitDx=0;exitDy=0;exitPerimeter=0;" parent="1" source="X623mI5D7pwIxlIXd98o-51" target="huo22DJVQxyHxbWJbVEM-5" edge="1">
          <mxGeometry width="50" height="50" relative="1" as="geometry">
            <mxPoint x="760" y="60" as="sourcePoint" />
            <mxPoint x="1380" y="-170" as="targetPoint" />
          </mxGeometry>
        </mxCell>
        <mxCell id="huo22DJVQxyHxbWJbVEM-18" value="" style="endArrow=classic;html=1;rounded=0;entryX=-0.013;entryY=0.404;entryDx=0;entryDy=0;entryPerimeter=0;exitX=0.983;exitY=0.668;exitDx=0;exitDy=0;exitPerimeter=0;" parent="1" source="X623mI5D7pwIxlIXd98o-51" target="huo22DJVQxyHxbWJbVEM-14" edge="1">
          <mxGeometry width="50" height="50" relative="1" as="geometry">
            <mxPoint x="930" y="-90" as="sourcePoint" />
            <mxPoint x="1390" y="-160" as="targetPoint" />
          </mxGeometry>
        </mxCell>
        <mxCell id="huo22DJVQxyHxbWJbVEM-19" value="" style="endArrow=classic;html=1;rounded=0;entryX=0;entryY=0.333;entryDx=0;entryDy=0;entryPerimeter=0;exitX=0.929;exitY=0.775;exitDx=0;exitDy=0;exitPerimeter=0;" parent="1" source="X623mI5D7pwIxlIXd98o-51" target="huo22DJVQxyHxbWJbVEM-13" edge="1">
          <mxGeometry width="50" height="50" relative="1" as="geometry">
            <mxPoint x="930" y="-90" as="sourcePoint" />
            <mxPoint x="1240" y="130" as="targetPoint" />
          </mxGeometry>
        </mxCell>
        <mxCell id="huo22DJVQxyHxbWJbVEM-20" value="" style="endArrow=classic;html=1;rounded=0;entryX=0;entryY=0.5;entryDx=0;entryDy=0;exitX=0.905;exitY=0.799;exitDx=0;exitDy=0;exitPerimeter=0;" parent="1" source="X623mI5D7pwIxlIXd98o-51" target="huo22DJVQxyHxbWJbVEM-10" edge="1">
          <mxGeometry width="50" height="50" relative="1" as="geometry">
            <mxPoint x="930" y="-90" as="sourcePoint" />
            <mxPoint x="1380" y="130" as="targetPoint" />
          </mxGeometry>
        </mxCell>
        <mxCell id="huo22DJVQxyHxbWJbVEM-22" value="" style="endArrow=classic;html=1;rounded=0;entryX=0;entryY=0.5;entryDx=0;entryDy=0;exitX=1;exitY=1;exitDx=0;exitDy=0;" parent="1" source="X623mI5D7pwIxlIXd98o-51" target="huo22DJVQxyHxbWJbVEM-15" edge="1">
          <mxGeometry width="50" height="50" relative="1" as="geometry">
            <mxPoint x="930" y="-90" as="sourcePoint" />
            <mxPoint x="1380" y="190" as="targetPoint" />
          </mxGeometry>
        </mxCell>
        <mxCell id="nYgkPJzoESxwYxAbSFau-1" value="MESSAGE / EMAIL ALERTS SETTINGS" style="ellipse;whiteSpace=wrap;html=1;" vertex="1" parent="1">
          <mxGeometry x="918.75" y="610" width="165" height="70" as="geometry" />
        </mxCell>
        <mxCell id="nYgkPJzoESxwYxAbSFau-2" value="MODIFY CUSTOMER DETAILS" style="ellipse;whiteSpace=wrap;html=1;" vertex="1" parent="1">
          <mxGeometry x="926.25" y="830" width="140" height="60" as="geometry" />
        </mxCell>
        <mxCell id="nYgkPJzoESxwYxAbSFau-3" value="VIEW CUSTOMER DETAILS" style="ellipse;whiteSpace=wrap;html=1;" vertex="1" parent="1">
          <mxGeometry x="936.25" y="760" width="130" height="60" as="geometry" />
        </mxCell>
        <mxCell id="nYgkPJzoESxwYxAbSFau-4" value="CHANGE PASSWORD" style="ellipse;whiteSpace=wrap;html=1;" vertex="1" parent="1">
          <mxGeometry x="931.25" y="690" width="130" height="60" as="geometry" />
        </mxCell>
        <mxCell id="nYgkPJzoESxwYxAbSFau-5" value="" style="endArrow=classic;html=1;rounded=0;entryX=-0.026;entryY=0.354;entryDx=0;entryDy=0;entryPerimeter=0;exitX=0.972;exitY=0.337;exitDx=0;exitDy=0;exitPerimeter=0;" edge="1" parent="1" target="nYgkPJzoESxwYxAbSFau-3" source="X623mI5D7pwIxlIXd98o-53">
          <mxGeometry width="50" height="50" relative="1" as="geometry">
            <mxPoint x="670" y="660" as="sourcePoint" />
            <mxPoint x="1020" y="600" as="targetPoint" />
          </mxGeometry>
        </mxCell>
        <mxCell id="nYgkPJzoESxwYxAbSFau-6" value="" style="endArrow=classic;html=1;rounded=0;entryX=-0.006;entryY=0.404;entryDx=0;entryDy=0;entryPerimeter=0;exitX=1;exitY=0.5;exitDx=0;exitDy=0;" edge="1" parent="1" target="nYgkPJzoESxwYxAbSFau-2" source="X623mI5D7pwIxlIXd98o-53">
          <mxGeometry width="50" height="50" relative="1" as="geometry">
            <mxPoint x="710" y="660" as="sourcePoint" />
            <mxPoint x="1020" y="600" as="targetPoint" />
          </mxGeometry>
        </mxCell>
        <mxCell id="nYgkPJzoESxwYxAbSFau-7" value="OFFERS AVAILABLE FOR YOU" style="ellipse;whiteSpace=wrap;html=1;" vertex="1" parent="1">
          <mxGeometry x="906.25" y="970" width="180" height="60" as="geometry" />
        </mxCell>
        <mxCell id="nYgkPJzoESxwYxAbSFau-8" value="CONTACT US" style="ellipse;whiteSpace=wrap;html=1;" vertex="1" parent="1">
          <mxGeometry x="921.25" y="900" width="150" height="60" as="geometry" />
        </mxCell>
        <mxCell id="nYgkPJzoESxwYxAbSFau-9" value="" style="endArrow=classic;html=1;rounded=0;entryX=0.008;entryY=0.64;entryDx=0;entryDy=0;entryPerimeter=0;exitX=1;exitY=0;exitDx=0;exitDy=0;" edge="1" parent="1" target="nYgkPJzoESxwYxAbSFau-1" source="X623mI5D7pwIxlIXd98o-53">
          <mxGeometry width="50" height="50" relative="1" as="geometry">
            <mxPoint x="670" y="660" as="sourcePoint" />
            <mxPoint x="1110" y="570" as="targetPoint" />
          </mxGeometry>
        </mxCell>
        <mxCell id="nYgkPJzoESxwYxAbSFau-10" value="" style="endArrow=classic;html=1;rounded=0;entryX=0.022;entryY=0.682;entryDx=0;entryDy=0;entryPerimeter=0;exitX=0.918;exitY=0.24;exitDx=0;exitDy=0;exitPerimeter=0;" edge="1" parent="1" target="nYgkPJzoESxwYxAbSFau-4" source="X623mI5D7pwIxlIXd98o-53">
          <mxGeometry width="50" height="50" relative="1" as="geometry">
            <mxPoint x="670" y="660" as="sourcePoint" />
            <mxPoint x="1120" y="580" as="targetPoint" />
          </mxGeometry>
        </mxCell>
        <mxCell id="nYgkPJzoESxwYxAbSFau-11" value="" style="endArrow=classic;html=1;rounded=0;entryX=-0.013;entryY=0.404;entryDx=0;entryDy=0;entryPerimeter=0;exitX=1.004;exitY=0.595;exitDx=0;exitDy=0;exitPerimeter=0;" edge="1" parent="1" target="nYgkPJzoESxwYxAbSFau-8" source="X623mI5D7pwIxlIXd98o-53">
          <mxGeometry width="50" height="50" relative="1" as="geometry">
            <mxPoint x="670" y="660" as="sourcePoint" />
            <mxPoint x="1130" y="590" as="targetPoint" />
          </mxGeometry>
        </mxCell>
        <mxCell id="nYgkPJzoESxwYxAbSFau-12" value="" style="endArrow=classic;html=1;rounded=0;entryX=0;entryY=0.333;entryDx=0;entryDy=0;entryPerimeter=0;exitX=0.961;exitY=0.713;exitDx=0;exitDy=0;exitPerimeter=0;" edge="1" parent="1" target="nYgkPJzoESxwYxAbSFau-7" source="X623mI5D7pwIxlIXd98o-53">
          <mxGeometry width="50" height="50" relative="1" as="geometry">
            <mxPoint x="670" y="660" as="sourcePoint" />
            <mxPoint x="980" y="880" as="targetPoint" />
          </mxGeometry>
        </mxCell>
        <mxCell id="nYgkPJzoESxwYxAbSFau-27" value="TRANSFER WITHIN THE BANK" style="ellipse;whiteSpace=wrap;html=1;" vertex="1" parent="1">
          <mxGeometry x="913.75" y="-20" width="165" height="80" as="geometry" />
        </mxCell>
        <mxCell id="nYgkPJzoESxwYxAbSFau-28" value="VIEW / DELETE A BENEFICIARY" style="ellipse;whiteSpace=wrap;html=1;" vertex="1" parent="1">
          <mxGeometry x="926.25" y="210" width="140" height="60" as="geometry" />
        </mxCell>
        <mxCell id="nYgkPJzoESxwYxAbSFau-29" value="ADD A BENEFICIARY" style="ellipse;whiteSpace=wrap;html=1;" vertex="1" parent="1">
          <mxGeometry x="931.25" y="140" width="130" height="60" as="geometry" />
        </mxCell>
        <mxCell id="nYgkPJzoESxwYxAbSFau-30" value="VIEW / DELETE LIST OF BENEFICIARIES" style="ellipse;whiteSpace=wrap;html=1;" vertex="1" parent="1">
          <mxGeometry x="931.25" y="70" width="130" height="60" as="geometry" />
        </mxCell>
        <mxCell id="nYgkPJzoESxwYxAbSFau-31" value="" style="endArrow=classic;html=1;rounded=0;entryX=-0.026;entryY=0.354;entryDx=0;entryDy=0;entryPerimeter=0;exitX=0.969;exitY=0.359;exitDx=0;exitDy=0;exitPerimeter=0;" edge="1" parent="1" target="nYgkPJzoESxwYxAbSFau-29" source="X623mI5D7pwIxlIXd98o-54">
          <mxGeometry width="50" height="50" relative="1" as="geometry">
            <mxPoint x="670" y="280" as="sourcePoint" />
            <mxPoint x="1020" y="220" as="targetPoint" />
          </mxGeometry>
        </mxCell>
        <mxCell id="nYgkPJzoESxwYxAbSFau-32" value="" style="endArrow=classic;html=1;rounded=0;entryX=-0.006;entryY=0.404;entryDx=0;entryDy=0;entryPerimeter=0;exitX=0.984;exitY=0.389;exitDx=0;exitDy=0;exitPerimeter=0;" edge="1" parent="1" target="nYgkPJzoESxwYxAbSFau-28" source="X623mI5D7pwIxlIXd98o-54">
          <mxGeometry width="50" height="50" relative="1" as="geometry">
            <mxPoint x="670" y="280" as="sourcePoint" />
            <mxPoint x="1020" y="220" as="targetPoint" />
          </mxGeometry>
        </mxCell>
        <mxCell id="nYgkPJzoESxwYxAbSFau-33" value="CHANGE TRANSACTION PASSWORD AND SECURITY QUESTIONS" style="ellipse;whiteSpace=wrap;html=1;" vertex="1" parent="1">
          <mxGeometry x="913.75" y="350" width="165" height="90" as="geometry" />
        </mxCell>
        <mxCell id="nYgkPJzoESxwYxAbSFau-34" value="MODIFY TPT LIMIT" style="ellipse;whiteSpace=wrap;html=1;" vertex="1" parent="1">
          <mxGeometry x="921.25" y="280" width="150" height="60" as="geometry" />
        </mxCell>
        <mxCell id="nYgkPJzoESxwYxAbSFau-35" value="" style="endArrow=classic;html=1;rounded=0;entryX=0.008;entryY=0.64;entryDx=0;entryDy=0;entryPerimeter=0;exitX=0.947;exitY=0.274;exitDx=0;exitDy=0;exitPerimeter=0;" edge="1" parent="1" target="nYgkPJzoESxwYxAbSFau-27" source="X623mI5D7pwIxlIXd98o-54">
          <mxGeometry width="50" height="50" relative="1" as="geometry">
            <mxPoint x="670" y="280" as="sourcePoint" />
            <mxPoint x="1110" y="190" as="targetPoint" />
          </mxGeometry>
        </mxCell>
        <mxCell id="nYgkPJzoESxwYxAbSFau-36" value="" style="endArrow=classic;html=1;rounded=0;entryX=0.022;entryY=0.682;entryDx=0;entryDy=0;entryPerimeter=0;exitX=0.954;exitY=0.317;exitDx=0;exitDy=0;exitPerimeter=0;" edge="1" parent="1" target="nYgkPJzoESxwYxAbSFau-30" source="X623mI5D7pwIxlIXd98o-54">
          <mxGeometry width="50" height="50" relative="1" as="geometry">
            <mxPoint x="670" y="280" as="sourcePoint" />
            <mxPoint x="1120" y="200" as="targetPoint" />
          </mxGeometry>
        </mxCell>
        <mxCell id="nYgkPJzoESxwYxAbSFau-37" value="" style="endArrow=classic;html=1;rounded=0;entryX=-0.013;entryY=0.404;entryDx=0;entryDy=0;entryPerimeter=0;exitX=0.999;exitY=0.419;exitDx=0;exitDy=0;exitPerimeter=0;" edge="1" parent="1" target="nYgkPJzoESxwYxAbSFau-34" source="X623mI5D7pwIxlIXd98o-54">
          <mxGeometry width="50" height="50" relative="1" as="geometry">
            <mxPoint x="670" y="280" as="sourcePoint" />
            <mxPoint x="1130" y="210" as="targetPoint" />
          </mxGeometry>
        </mxCell>
        <mxCell id="nYgkPJzoESxwYxAbSFau-38" value="" style="endArrow=classic;html=1;rounded=0;entryX=0;entryY=0.333;entryDx=0;entryDy=0;entryPerimeter=0;exitX=1;exitY=0.5;exitDx=0;exitDy=0;" edge="1" parent="1" target="nYgkPJzoESxwYxAbSFau-33" source="X623mI5D7pwIxlIXd98o-54">
          <mxGeometry width="50" height="50" relative="1" as="geometry">
            <mxPoint x="670" y="280" as="sourcePoint" />
            <mxPoint x="980" y="500" as="targetPoint" />
          </mxGeometry>
        </mxCell>
        <mxCell id="nYgkPJzoESxwYxAbSFau-39" value="WITHDRAW MONEY" style="ellipse;whiteSpace=wrap;html=1;" vertex="1" parent="1">
          <mxGeometry x="921.25" y="450" width="165" height="60" as="geometry" />
        </mxCell>
        <mxCell id="nYgkPJzoESxwYxAbSFau-40" value="" style="endArrow=classic;html=1;rounded=0;entryX=0.008;entryY=0.397;entryDx=0;entryDy=0;entryPerimeter=0;exitX=0.994;exitY=0.611;exitDx=0;exitDy=0;exitPerimeter=0;" edge="1" parent="1" target="nYgkPJzoESxwYxAbSFau-39" source="X623mI5D7pwIxlIXd98o-54">
          <mxGeometry width="50" height="50" relative="1" as="geometry">
            <mxPoint x="680" y="290" as="sourcePoint" />
            <mxPoint x="1110" y="505" as="targetPoint" />
          </mxGeometry>
        </mxCell>
        <mxCell id="nYgkPJzoESxwYxAbSFau-46" value="BANK EMPLOYEE" style="shape=umlActor;verticalLabelPosition=bottom;verticalAlign=top;html=1;outlineConnect=0;" vertex="1" parent="1">
          <mxGeometry x="2480" y="750" width="30" height="60" as="geometry" />
        </mxCell>
        <mxCell id="nYgkPJzoESxwYxAbSFau-48" value="EXISTING EMPLOYEE SIGN-IN" style="ellipse;whiteSpace=wrap;html=1;" vertex="1" parent="1">
          <mxGeometry x="2450" y="480" width="130" height="60" as="geometry" />
        </mxCell>
        <mxCell id="nYgkPJzoESxwYxAbSFau-57" value="" style="endArrow=classic;html=1;rounded=0;exitX=1;exitY=0;exitDx=0;exitDy=0;entryX=0.5;entryY=1;entryDx=0;entryDy=0;" edge="1" parent="1" target="nYgkPJzoESxwYxAbSFau-73">
          <mxGeometry width="50" height="50" relative="1" as="geometry">
            <mxPoint x="2072.426406871163" y="481.7157287525579" as="sourcePoint" />
            <mxPoint x="2213" y="411" as="targetPoint" />
          </mxGeometry>
        </mxCell>
        <mxCell id="nYgkPJzoESxwYxAbSFau-61" value="BANK EMPLOYEE" style="shape=umlActor;verticalLabelPosition=bottom;verticalAlign=top;html=1;outlineConnect=0;" vertex="1" parent="1">
          <mxGeometry x="2480" y="750" width="30" height="60" as="geometry" />
        </mxCell>
        <mxCell id="nYgkPJzoESxwYxAbSFau-62" value="NEW EMPLOYEE REGISTRATION" style="ellipse;whiteSpace=wrap;html=1;" vertex="1" parent="1">
          <mxGeometry x="2470" y="630" width="130" height="60" as="geometry" />
        </mxCell>
        <mxCell id="nYgkPJzoESxwYxAbSFau-63" value="EXISTING EMPLOYEE SIGN-IN" style="ellipse;whiteSpace=wrap;html=1;" vertex="1" parent="1">
          <mxGeometry x="2230" y="480" width="130" height="60" as="geometry" />
        </mxCell>
        <mxCell id="nYgkPJzoESxwYxAbSFau-69" value="HOMEPAGE" style="ellipse;whiteSpace=wrap;html=1;" vertex="1" parent="1">
          <mxGeometry x="1970" y="450" width="120" height="80" as="geometry" />
        </mxCell>
        <mxCell id="nYgkPJzoESxwYxAbSFau-70" value="" style="endArrow=classic;html=1;rounded=0;entryX=0;entryY=0.5;entryDx=0;entryDy=0;exitX=1;exitY=1;exitDx=0;exitDy=0;" edge="1" parent="1" source="nYgkPJzoESxwYxAbSFau-69" target="nYgkPJzoESxwYxAbSFau-74">
          <mxGeometry width="50" height="50" relative="1" as="geometry">
            <mxPoint x="2090" y="510" as="sourcePoint" />
            <mxPoint x="2220" y="570" as="targetPoint" />
          </mxGeometry>
        </mxCell>
        <mxCell id="nYgkPJzoESxwYxAbSFau-71" value="" style="endArrow=classic;html=1;rounded=0;exitX=0.996;exitY=0.502;exitDx=0;exitDy=0;exitPerimeter=0;entryX=0;entryY=0.5;entryDx=0;entryDy=0;" edge="1" parent="1" source="nYgkPJzoESxwYxAbSFau-69" target="nYgkPJzoESxwYxAbSFau-75">
          <mxGeometry width="50" height="50" relative="1" as="geometry">
            <mxPoint x="2090" y="500" as="sourcePoint" />
            <mxPoint x="2220" y="480" as="targetPoint" />
          </mxGeometry>
        </mxCell>
        <mxCell id="nYgkPJzoESxwYxAbSFau-73" value="ACCOUNTS&amp;nbsp;" style="ellipse;whiteSpace=wrap;html=1;" vertex="1" parent="1">
          <mxGeometry x="1740" y="-150" width="120" height="60" as="geometry" />
        </mxCell>
        <mxCell id="nYgkPJzoESxwYxAbSFau-74" value="ADMIN SERVICES" style="ellipse;whiteSpace=wrap;html=1;" vertex="1" parent="1">
          <mxGeometry x="1750" y="780" width="120" height="60" as="geometry" />
        </mxCell>
        <mxCell id="nYgkPJzoESxwYxAbSFau-75" value="FUND TRANSFER" style="ellipse;whiteSpace=wrap;html=1;" vertex="1" parent="1">
          <mxGeometry x="1740" y="250" width="120" height="60" as="geometry" />
        </mxCell>
      </root>
    </mxGraphModel>
  </diagram>
</mxfile>
